<?xml version="1.0" standalone="no"?>
<!DOCTYPE svg PUBLIC "-//W3C//DTD SVG 20010904//EN"
 "http://www.w3.org/TR/2001/REC-SVG-20010904/DTD/svg10.dtd">
<svg version="1.0" xmlns="http://www.w3.org/2000/svg"
 width="192.000000pt" height="192.000000pt" viewBox="0 0 192.000000 192.000000"
 preserveAspectRatio="xMidYMid meet">
<metadata>
Created by potrace 1.11, written by Peter Selinger 2001-2013
</metadata>
<g transform="translate(0.000000,192.000000) scale(0.100000,-0.100000)"
fill="#000000" stroke="none">
<path d="M306 1622 c-15 -3 -16 -6 -5 -13 10 -6 10 -9 2 -9 -9 0 -10 -7 -4
-23 6 -14 5 -30 -1 -41 -6 -10 -6 -21 -2 -25 13 -9 16 -31 4 -31 -6 0 -6 -9
-1 -23 6 -14 5 -30 -1 -41 -6 -10 -6 -21 -2 -25 13 -9 16 -31 4 -31 -6 0 -6
-9 -1 -23 6 -14 5 -30 -1 -41 -12 -22 7 -39 35 -32 9 2 17 0 17 -5 0 -6 8 -5
20 1 14 8 20 8 20 0 0 -8 6 -8 20 0 14 8 20 8 20 0 0 -8 6 -8 20 0 14 8 20 8
20 0 0 -8 6 -8 20 0 14 8 20 8 20 0 0 -8 6 -8 20 0 14 8 20 8 20 0 0 -8 6 -8
20 0 14 8 20 8 20 0 0 -8 6 -8 20 0 13 7 20 7 20 0 0 -5 9 -2 19 7 14 12 17
22 11 38 -5 12 -4 29 2 39 6 10 6 21 2 25 -13 9 -16 31 -4 31 6 0 6 9 1 23 -6
14 -5 30 1 41 6 10 6 21 2 25 -13 9 -16 31 -4 31 6 0 6 9 1 23 -6 14 -5 30 1
41 12 21 9 24 -31 36 -19 5 -31 5 -31 -1 0 -11 -22 -8 -31 5 -4 4 -15 4 -25
-2 -11 -6 -27 -7 -41 -1 -14 5 -23 5 -23 -1 0 -12 -22 -9 -31 4 -4 4 -15 4
-25 -2 -11 -6 -27 -7 -41 -1 -14 5 -23 5 -23 -1 0 -10 -21 -10 -30 0 -3 3 -14
4 -24 2z"/>
<path d="M778 1612 c-4 -12 -3 -22 1 -22 4 0 8 -7 8 -15 0 -8 -4 -15 -8 -15
-5 0 -5 -10 0 -23 5 -14 5 -30 0 -40 -7 -11 -6 -17 1 -17 6 0 8 -5 3 -12 -11
-19 -12 -38 -2 -38 6 0 5 -8 -1 -20 -8 -14 -8 -20 0 -20 8 0 8 -6 0 -20 -8
-14 -8 -20 0 -20 8 0 8 -6 0 -20 -6 -12 -7 -20 -1 -20 5 0 7 -8 5 -17 -7 -28
10 -47 32 -35 11 6 27 7 41 1 14 -5 23 -5 23 1 0 12 22 9 31 -4 4 -4 15 -4 25
2 11 6 27 7 41 1 14 -5 23 -5 23 1 0 12 22 9 31 -4 4 -4 15 -4 25 2 11 5 28 6
38 2 29 -10 57 17 46 45 -5 12 -5 28 0 35 5 7 4 23 0 35 -5 14 -4 27 3 34 8 8
8 11 -2 11 -9 0 -10 4 -3 13 5 6 6 21 2 32 -4 11 -3 28 2 39 6 10 6 21 2 25
-12 8 -16 31 -6 31 4 0 7 13 7 29 0 16 -1 28 -3 26 -2 -2 -17 1 -33 5 -17 5
-29 5 -29 -1 0 -11 -22 -8 -31 5 -4 4 -15 4 -25 -2 -11 -5 -28 -6 -39 -2 -11
4 -28 3 -37 -2 -12 -6 -18 -5 -18 2 0 8 -6 8 -20 0 -14 -8 -20 -8 -20 0 0 8
-6 8 -20 0 -14 -8 -20 -8 -20 0 0 8 -6 8 -20 0 -15 -8 -20 -8 -20 2 0 10 -2
10 -9 -1 -7 -11 -9 -11 -13 0 -3 8 -7 5 -10 -9z"/>
<path d="M1265 1619 c-13 -5 -15 -8 -5 -8 13 -1 13 -2 0 -11 -11 -7 -11 -10
-2 -10 9 0 10 -5 2 -19 -7 -14 -7 -22 0 -26 8 -5 7 -11 -1 -21 -9 -11 -9 -14
0 -14 9 0 9 -5 1 -20 -8 -14 -8 -20 0 -20 8 0 8 -6 0 -20 -8 -14 -8 -20 0 -20
8 0 8 -6 0 -20 -8 -14 -8 -20 0 -20 8 0 8 -6 0 -20 -8 -14 -8 -20 0 -20 8 0 8
-6 0 -20 -6 -12 -7 -20 -1 -20 5 0 7 -8 5 -17 -7 -28 10 -47 32 -35 11 6 27 7
41 1 14 -5 23 -5 23 1 0 12 22 9 31 -4 4 -4 15 -4 25 2 11 6 27 7 41 1 14 -5
23 -5 23 1 0 12 22 9 31 -4 4 -4 15 -4 25 2 11 5 28 6 38 2 29 -10 57 17 46
45 -5 12 -4 29 2 39 6 10 6 21 2 25 -13 9 -16 31 -4 31 6 0 6 9 1 23 -6 14 -5
30 1 41 6 10 6 21 2 25 -13 9 -16 31 -4 31 6 0 6 9 1 23 -6 14 -5 30 1 41 12
21 9 24 -31 36 -19 5 -31 5 -31 -1 0 -11 -22 -8 -31 5 -4 4 -15 4 -25 -2 -11
-6 -27 -7 -41 -1 -14 5 -23 5 -23 -1 0 -12 -22 -9 -31 4 -4 4 -15 4 -25 -2
-11 -6 -27 -7 -41 -1 -14 5 -23 5 -23 -1 0 -10 -21 -9 -30 1 -3 4 -14 3 -25
-2z"/>
<path d="M308 1131 c-9 -10 -12 -25 -8 -37 4 -10 3 -27 -2 -38 -6 -10 -6 -21
-2 -25 12 -8 16 -31 7 -31 -5 0 -8 -11 -8 -25 0 -14 4 -25 8 -25 4 0 3 -9 -3
-20 -8 -14 -8 -20 0 -20 8 0 8 -6 0 -20 -8 -14 -8 -20 0 -20 8 0 8 -6 0 -20
-6 -12 -7 -20 -1 -20 5 0 7 -8 5 -17 -7 -28 10 -47 32 -35 11 6 27 7 41 1 13
-5 23 -5 23 0 0 4 7 8 15 8 8 0 15 -5 15 -10 0 -5 8 -6 18 -2 28 11 62 13 62
3 0 -5 9 -4 20 2 14 8 20 8 20 0 0 -8 6 -8 20 0 14 8 20 8 20 0 0 -8 6 -8 20
0 14 8 20 8 20 0 0 -6 7 -4 16 4 16 17 27 66 14 66 -4 0 -7 7 -7 15 0 8 4 15
8 15 5 0 5 10 0 23 -6 14 -5 30 1 41 6 10 6 21 2 25 -13 9 -16 31 -4 31 6 0 6
9 1 23 -5 14 -5 30 0 40 7 11 6 17 -1 17 -6 0 -8 5 -4 12 8 13 14 51 7 44 -3
-2 -18 0 -34 4 -17 5 -29 5 -29 -1 0 -11 -22 -8 -31 5 -4 4 -15 4 -25 -2 -11
-5 -28 -6 -39 -2 -11 4 -26 3 -32 -2 -9 -7 -13 -6 -13 3 0 10 -3 10 -11 2 -7
-7 -20 -8 -34 -3 -12 4 -28 5 -35 0 -7 -5 -23 -5 -35 0 -16 6 -26 4 -37 -9z"/>
<path d="M785 1139 c-11 -4 -14 -8 -7 -8 8 -1 10 -6 6 -13 -10 -16 -13 -48 -4
-48 4 0 7 -7 7 -15 0 -8 -4 -15 -8 -15 -5 0 -5 -10 0 -23 6 -14 5 -30 -1 -41
-6 -10 -6 -21 -2 -25 13 -9 16 -31 4 -31 -6 0 -6 -9 -1 -23 5 -14 5 -30 0 -40
-7 -12 -6 -17 3 -17 9 0 9 -3 1 -11 -8 -8 -8 -18 -1 -35 12 -26 16 -28 37 -15
8 6 24 6 38 0 12 -5 23 -5 23 0 0 4 7 8 15 8 8 0 15 -5 15 -10 0 -5 8 -6 18
-2 28 11 62 13 62 3 0 -5 9 -4 20 2 14 8 20 8 20 0 0 -8 6 -8 20 0 14 8 20 8
20 0 0 -8 6 -8 20 0 13 7 20 7 20 0 0 -5 9 -2 19 7 14 12 17 22 11 38 -5 12
-4 29 2 39 6 10 6 21 2 25 -12 8 -16 31 -6 31 5 0 7 17 4 38 -5 54 -5 55 3 75
4 9 3 17 -2 17 -5 0 -10 7 -10 15 0 8 3 15 6 15 3 0 6 13 6 29 0 25 -3 28 -27
27 -16 -1 -28 2 -28 6 0 5 -9 4 -20 -2 -14 -8 -20 -8 -20 0 0 8 -6 8 -20 0
-14 -8 -20 -8 -20 0 0 8 -6 8 -20 0 -12 -6 -20 -7 -20 -1 0 10 -19 9 -37 -2
-8 -5 -13 -3 -13 3 0 7 -6 8 -17 1 -10 -5 -26 -5 -40 0 -14 5 -23 5 -23 -1 0
-10 -21 -9 -30 1 -3 4 -14 3 -25 -2z"/>
<path d="M1265 1139 c-13 -5 -15 -8 -5 -8 13 -1 13 -2 0 -11 -11 -7 -11 -10
-2 -10 9 0 10 -5 2 -19 -7 -14 -7 -22 0 -26 8 -5 7 -11 -1 -21 -9 -11 -9 -14
0 -14 9 0 9 -5 1 -20 -8 -14 -8 -20 0 -20 8 0 8 -6 0 -20 -8 -14 -8 -20 0 -20
8 0 8 -6 0 -20 -8 -14 -8 -20 0 -20 8 0 8 -6 0 -20 -8 -14 -8 -20 0 -20 8 0 8
-6 0 -20 -6 -12 -7 -20 -1 -20 5 0 7 -8 5 -17 -7 -28 10 -47 32 -35 11 6 27 7
41 1 13 -5 23 -5 23 0 0 4 7 8 15 8 8 0 15 -5 15 -10 0 -5 8 -6 18 -2 28 11
62 13 62 3 0 -5 9 -4 20 2 14 8 20 8 20 0 0 -8 6 -8 20 0 14 8 20 8 20 0 0 -8
6 -8 20 0 14 8 20 8 20 0 0 -6 7 -4 16 4 16 17 27 66 14 66 -4 0 -7 7 -7 15 0
8 4 15 8 15 5 0 5 10 0 23 -6 14 -5 30 1 41 6 10 6 21 2 25 -13 9 -16 31 -4
31 6 0 6 9 1 23 -5 14 -5 30 0 40 7 11 6 17 -1 17 -6 0 -8 5 -4 12 18 29 11
46 -18 44 -15 -1 -28 2 -28 6 0 5 -9 4 -20 -2 -14 -8 -20 -8 -20 0 0 8 -6 8
-20 0 -14 -8 -20 -8 -20 0 0 8 -6 8 -20 0 -12 -6 -20 -7 -20 -1 0 10 -19 9
-37 -2 -8 -5 -13 -3 -13 3 0 7 -6 8 -17 1 -10 -5 -26 -5 -40 0 -14 5 -23 5
-23 -1 0 -10 -21 -9 -30 1 -3 4 -14 3 -25 -2z"/>
<path d="M306 662 c-15 -3 -16 -6 -5 -13 10 -6 10 -9 2 -9 -9 0 -10 -7 -4 -23
6 -14 5 -30 -1 -41 -6 -10 -6 -21 -2 -25 13 -9 16 -31 4 -31 -6 0 -6 -9 -1
-23 6 -14 5 -30 -1 -41 -6 -10 -6 -21 -2 -25 13 -9 16 -31 4 -31 -6 0 -6 -9
-1 -23 6 -14 5 -30 -1 -41 -12 -21 -9 -24 31 -36 19 -5 31 -5 31 1 0 11 22 8
31 -5 4 -4 15 -4 25 2 11 6 27 7 41 1 14 -5 23 -5 23 1 0 12 22 9 31 -4 4 -4
15 -4 25 2 11 6 27 7 41 1 14 -5 23 -5 23 1 0 10 21 9 30 -1 3 -4 14 -3 25 2
13 5 15 8 5 8 -13 1 -13 2 0 11 11 7 11 10 2 10 -9 0 -10 5 -2 19 7 14 7 22 0
26 -8 5 -7 11 1 21 9 11 9 14 0 14 -9 0 -9 5 -1 20 8 14 8 20 0 20 -8 0 -8 6
0 20 8 14 8 20 0 20 -8 0 -8 6 0 20 8 14 8 20 0 20 -8 0 -8 6 0 20 8 14 8 20
0 20 -8 0 -8 6 0 20 7 13 7 20 1 20 -7 0 -7 9 0 27 6 15 7 25 4 21 -4 -3 -20
-2 -36 2 -17 5 -29 5 -29 -1 0 -11 -22 -8 -31 5 -4 4 -15 4 -25 -2 -11 -6 -27
-7 -41 -1 -14 5 -23 5 -23 -1 0 -12 -22 -9 -31 4 -4 4 -15 4 -25 -2 -11 -6
-27 -7 -41 -1 -14 5 -23 5 -23 -1 0 -10 -21 -10 -30 0 -3 3 -14 4 -24 2z"/>
<path d="M786 662 c-15 -3 -16 -6 -5 -13 10 -6 10 -9 2 -9 -9 0 -10 -7 -4 -23
5 -13 6 -30 1 -37 -5 -7 -4 -23 0 -35 5 -14 4 -27 -3 -34 -8 -8 -8 -11 2 -11
9 0 10 -4 3 -12 -5 -7 -6 -22 -2 -33 4 -11 3 -28 -2 -39 -6 -10 -6 -21 -2 -25
12 -8 16 -31 6 -31 -4 0 -7 -13 -7 -29 0 -16 1 -28 3 -26 2 2 17 -1 33 -5 17
-5 29 -5 29 1 0 11 22 8 31 -5 4 -4 15 -4 25 2 11 5 28 6 39 2 11 -4 28 -3 38
2 11 6 17 5 17 -2 0 -8 6 -8 20 0 14 8 20 8 20 0 0 -8 6 -8 20 0 14 8 20 8 20
0 0 -8 6 -8 20 0 15 8 20 8 20 -2 0 -9 3 -9 10 2 9 13 10 13 11 0 0 -10 3 -8
8 5 5 11 6 22 2 25 -10 9 -11 30 -1 30 6 0 6 9 1 23 -5 14 -5 30 0 40 7 11 6
17 -1 17 -6 0 -8 5 -3 13 11 18 12 37 2 37 -6 0 -5 8 1 20 8 14 8 20 0 20 -8
0 -8 6 0 20 8 14 8 20 0 20 -8 0 -8 6 0 20 7 13 7 20 1 20 -7 0 -7 9 0 27 6
15 7 25 4 21 -4 -3 -20 -2 -36 2 -17 5 -29 5 -29 -1 0 -11 -22 -8 -31 5 -4 4
-15 4 -25 -2 -11 -6 -27 -7 -41 -1 -14 5 -23 5 -23 -1 0 -12 -22 -9 -31 4 -4
4 -15 4 -25 -2 -11 -6 -27 -7 -41 -1 -14 5 -23 5 -23 -1 0 -10 -21 -10 -30 0
-3 3 -14 4 -24 2z"/>
<path d="M1266 662 c-15 -3 -16 -6 -5 -13 10 -6 10 -9 2 -9 -9 0 -10 -7 -4
-23 6 -14 5 -30 -1 -41 -6 -10 -6 -21 -2 -25 13 -9 16 -31 4 -31 -6 0 -6 -9
-1 -23 6 -14 5 -30 -1 -41 -6 -10 -6 -21 -2 -25 13 -9 16 -31 4 -31 -6 0 -6
-9 -1 -23 6 -14 5 -30 -1 -41 -12 -22 7 -39 35 -32 9 2 17 0 17 -5 0 -6 8 -5
20 1 14 8 20 8 20 0 0 -8 6 -8 20 0 14 8 20 8 20 0 0 -8 6 -8 20 0 14 8 20 8
20 0 0 -8 6 -8 20 0 14 8 20 8 20 0 0 -8 6 -8 20 0 14 8 20 8 20 0 0 -8 6 -8
20 0 14 8 20 8 20 0 0 -7 6 -8 19 0 14 7 21 6 24 -3 2 -7 9 -2 17 13 15 28 20
60 10 60 -4 0 -7 7 -7 15 0 8 4 15 8 15 5 0 5 10 0 23 -6 14 -5 30 1 41 6 10
6 21 2 25 -13 9 -16 31 -4 31 6 0 6 9 1 23 -5 14 -5 30 0 40 7 11 6 17 -1 17
-6 0 -8 5 -4 12 8 13 14 51 7 44 -3 -2 -18 0 -34 4 -17 5 -29 5 -29 -1 0 -11
-22 -8 -31 5 -4 4 -15 4 -25 -2 -11 -6 -27 -7 -41 -1 -14 5 -23 5 -23 -1 0
-12 -22 -9 -31 4 -4 4 -15 4 -25 -2 -11 -6 -27 -7 -41 -1 -14 5 -23 5 -23 -1
0 -10 -21 -10 -30 0 -3 3 -14 4 -24 2z"/>
</g>
</svg>
